<?xml version="1.0" encoding="UTF-8" standalone="no"?>
<!-- Created with Inkscape (http://www.inkscape.org/) -->

<svg
   xmlns:dc="http://purl.org/dc/elements/1.1/"
   xmlns:cc="http://creativecommons.org/ns#"
   xmlns:rdf="http://www.w3.org/1999/02/22-rdf-syntax-ns#"
   xmlns:svg="http://www.w3.org/2000/svg"
   xmlns="http://www.w3.org/2000/svg"
   xmlns:sodipodi="http://sodipodi.sourceforge.net/DTD/sodipodi-0.dtd"
   xmlns:inkscape="http://www.inkscape.org/namespaces/inkscape"
   width="3.7041667mm"
   height="4.2333331mm"
   viewBox="0 0 3.7041667 4.2333331"
   version="1.1"
   id="svg8"
   inkscape:version="0.92.5 (2060ec1f9f, 2020-04-08)"
   sodipodi:docname="bookmark-yellow.svg">
  <defs
     id="defs2" />
  <sodipodi:namedview
     id="base"
     pagecolor="#ffffff"
     bordercolor="#666666"
     borderopacity="1.0"
     inkscape:pageopacity="0.0"
     inkscape:pageshadow="2"
     inkscape:zoom="11.539983"
     inkscape:cx="0.30755209"
     inkscape:cy="-0.89310684"
     inkscape:document-units="mm"
     inkscape:current-layer="layer1"
     showgrid="false"
     inkscape:window-width="1920"
     inkscape:window-height="1019"
     inkscape:window-x="1920"
     inkscape:window-y="36"
     inkscape:window-maximized="1" />
  <metadata
     id="metadata5">
    <rdf:RDF>
      <cc:Work
         rdf:about="">
        <dc:format>image/svg+xml</dc:format>
        <dc:type
           rdf:resource="http://purl.org/dc/dcmitype/StillImage" />
        <dc:title></dc:title>
      </cc:Work>
    </rdf:RDF>
  </metadata>
  <g
     inkscape:label="Layer 1"
     inkscape:groupmode="layer"
     id="layer1"
     transform="translate(-21.58244,-110.43095)">
    <g
       style="fill:#ffcc00"
       id="g24"
       transform="matrix(0.26458333,0,0,0.26458333,21.58244,110.43095)">
      <path
         style="clip-rule:evenodd;fill:#ffcc00;fill-rule:evenodd"
         inkscape:connector-curvature="0"
         id="path2"
         d="M 14,16 H 12.1717 L 7.7072,11.5354 c -0.3906,-0.3905 -1.0237,-0.3905 -1.4143,0 L 1.82843,16 H 0 V 3 C 0,1.34315 1.34315,0 3,0 h 8 c 1.6569,0 3,1.34314 3,3 z M 12,3 C 12,2.44772 11.5523,2 11,2 H 3 C 2.44772,2 2,2.44772 2,3 v 10 l 2.87873,-2.8788 c 1.17157,-1.1715 3.07107,-1.1715 4.24267,0 L 12,12.9999 Z" />
    </g>
    <path
       style="fill:#ffcc00;fill-opacity:1;stroke-width:0.08665524"
       d="M 10.402888,11.361846 C 8.4931088,9.4465597 8.1583622,9.2394164 6.9818279,9.244872 5.8174869,9.250271 5.5305909,9.4264514 3.6221151,11.308044 L 2.0406569,12.867225 V 7.8221255 c 0,-5.5812061 -0.017242,-5.4051334 0.5559508,-5.6771314 0.2724047,-0.1292645 0.735417,-0.141602 4.5036173,-0.120004 4.109061,0.023552 4.205293,0.028004 4.444572,0.2056599 0.458609,0.3404992 0.464508,0.4177292 0.440254,5.7642003 l -0.02237,4.9312887 z"
       id="path26"
       inkscape:connector-curvature="0"
       transform="matrix(0.26458333,0,0,0.26458333,21.58244,110.43095)" />
    <path
       style="fill:#ffcc00;fill-opacity:1;stroke-width:0.08665524"
       d="m 1.9813342,7.8982918 c -0.00684,-2.7881325 0.013459,-4.9718446 0.045107,-4.8526936 0.031649,0.1191509 0.037245,2.4003502 0.012436,5.0693317 l -0.045107,4.8526931 z"
       id="path28"
       inkscape:connector-curvature="0"
       transform="matrix(0.26458333,0,0,0.26458333,21.58244,110.43095)" />
    <path
       style="fill:#ffcc00;fill-opacity:1;stroke-width:0.08665524"
       d="M 0.06723117,9.0898014 C 0.09084852,2.2413554 0.09143596,2.2212435 0.27975941,1.8136008 0.56139852,1.2039682 1.1766048,0.59516943 1.8037145,0.30551807 L 2.3439503,0.05599229 h 4.5927279 c 3.4014408,0 4.6839658,0.02780775 4.9444758,0.10720626 0.815626,0.24858767 1.581617,0.98400175 1.919143,1.84253675 0.141179,0.3591028 0.155342,0.926322 0.179051,7.1707213 l 0.02575,6.7807724 -0.891223,-0.0013 -0.891223,-0.0013 -2.3396916,-2.327094 C 7.3969259,11.154838 7.2897551,11.075524 6.6984017,11.270689 6.5085822,11.333334 5.6647322,12.115691 4.1207214,13.660527 L 1.8252452,15.957229 H 0.93439679 0.04354836 Z M 3.6664456,11.351756 C 5.5796295,9.4686832 5.8139122,9.3275227 7.0233334,9.3291579 c 0.7117543,9.619e-4 0.8253258,0.025419 1.2998287,0.2799007 0.4527805,0.2428323 0.486356,0.250847 0.2599657,0.062057 C 7.960257,9.1516975 6.550638,9.054407 5.7120627,9.4729597 5.471166,9.5931973 4.6564945,10.293408 3.6959049,11.205849 L 2.0839846,12.736973 2.060902,8.9528124 C 2.0482066,6.871524 2.0717661,4.5710012 2.1132565,3.8405395 2.1809605,2.6485688 2.2080031,2.4931196 2.3770679,2.3240727 L 2.5654425,2.1357181 h 4.4150387 4.4150378 l 0.240255,0.240212 0.240253,0.2402121 0.02431,5.0890853 0.02431,5.0890855 -1.1075,-1.084445 c -0.609126,-0.596446 -1.3024753,-1.258741 -1.5407773,-1.471769 -0.2383019,-0.213028 0.2682249,0.323717 1.1256153,1.192765 0.85739,0.869048 1.569046,1.580087 1.581458,1.580087 0.01241,0 0.02257,-2.343591 0.02257,-5.20798 V 2.5949909 L 11.711382,2.3003631 11.416754,2.0057353 H 7.0289502 c -3.9882052,0 -4.4083325,0.013451 -4.613216,0.1476955 -0.4617076,0.3025224 -0.4617325,0.3028348 -0.4617325,5.7998479 0,2.7976063 0.029246,5.0571893 0.064991,5.0212943 0.035745,-0.03589 0.777099,-0.766162 1.6474529,-1.622817 z"
       id="path30"
       inkscape:connector-curvature="0"
       transform="matrix(0.26458333,0,0,0.26458333,21.58244,110.43095)" />
    <path
       style="fill:#ffcc00;fill-opacity:1;stroke-width:0.08665524"
       d="M 0.06723117,9.0898014 C 0.0907864,2.2593699 0.09192275,2.2201906 0.27816642,1.817202 0.54407906,1.2418281 1.125377,0.64789714 1.73419,0.32953542 L 2.2572951,0.05599229 h 4.7227107 4.7227112 l 0.493631,0.2313853 c 0.560848,0.26289219 1.189336,0.84881481 1.442253,1.34457111 0.338882,0.6642657 0.360479,1.134092 0.360479,7.8420526 V 15.957229 H 13.066912 12.134743 L 9.8823317,13.695472 C 8.598912,12.406727 7.5049007,11.379433 7.3393139,11.307539 6.7761837,11.063039 6.6778054,11.134869 4.1608068,13.628255 L 1.8097775,15.957229 H 0.9266629 0.04354836 Z M 12.00601,7.802971 V 2.5949909 L 11.711382,2.3003631 11.416754,2.0057353 h -4.33735 c -3.0931544,0 -4.4003153,0.028689 -4.5568507,0.100011 C 2.4018281,2.1607524 2.2342651,2.3069831 2.1501912,2.4307035 2.0091426,2.6382656 1.9953576,3.0524341 1.9718158,7.7899727 c -0.014032,2.8238773 0.00594,5.1343233 0.044376,5.1343233 0.038439,0 0.6738382,-0.611161 1.4119975,-1.358137 L 4.7702971,10.208021 3.4271408,11.48523 2.0839846,12.762437 2.0613176,8.7922333 C 2.0488509,6.608622 2.0710226,4.3037576 2.1105882,3.6703128 2.1742063,2.6517891 2.2046653,2.4964554 2.3739642,2.3271565 L 2.5654026,2.1357181 h 4.4150409 4.4150415 l 0.24027,0.2402192 0.240272,0.2402192 0.02415,5.0890782 0.02415,5.0890783 -0.674065,-0.65028 C 9.7061503,10.654405 9.4460554,10.453808 10.66177,11.69016 c 0.71431,0.726435 1.308982,1.320791 1.321493,1.320791 0.01251,0 0.02275,-2.343591 0.02275,-5.20798 z M 6.156781,9.4054266 C 6.3962125,9.3300946 6.4420403,9.2945764 6.3049755,9.2905729 6.1126881,9.284955 5.4202114,9.5893827 5.4202114,9.6795345 c 0,0.024538 0.087738,-0.00256 0.1949743,-0.060218 0.1072359,-0.057657 0.3509538,-0.153908 0.5415953,-0.2138899 z m 2.4696744,0.278841 c 0,-0.067242 -0.7818173,-0.3993888 -0.9305995,-0.395355 -0.083925,0.00227 0.022886,0.064522 0.2373576,0.1383269 0.2144717,0.073804 0.4269937,0.16943 0.472271,0.2125012 0.083148,0.079096 0.2209709,0.1068684 0.2209709,0.044527 z M 7.3065149,9.2228579 C 7.1763024,9.2030858 6.9423332,9.202688 6.7865834,9.221974 c -0.1557498,0.019286 -0.049212,0.035464 0.23675,0.03595 0.2859623,5.199e-4 0.413394,-0.015293 0.2831815,-0.035066 z"
       id="path32"
       inkscape:connector-curvature="0"
       transform="matrix(0.26458333,0,0,0.26458333,21.58244,110.43095)" />
    <path
       style="fill:#ffcc00;fill-opacity:1;stroke-width:0.08665524"
       d="M 0.06723117,9.0898014 C 0.09084852,2.2413554 0.09143596,2.2212435 0.27975941,1.8136008 0.54452486,1.2404927 1.1947549,0.57799917 1.7697391,0.29551977 l 0.487556,-0.23952748 h 4.7227107 4.7227112 l 0.487003,0.22835089 c 0.947072,0.44407257 1.531971,1.19164692 1.715203,2.19224712 0.06235,0.3405012 0.09416,2.7040995 0.09416,6.997411 v 6.4832277 h -0.926791 -0.926793 l -2.3444426,-2.32674 c -1.5143238,-1.502888 -2.4285633,-2.347187 -2.582016,-2.384487 -0.1399957,-0.03403 -0.3597715,-0.0067 -0.5350942,0.06657 -0.176245,0.07364 -1.231229,1.045613 -2.5881318,2.384487 l -2.2906127,2.26017 H 0.92437503 0.04354836 Z M 4.3803485,10.594947 c 0,-0.01947 -0.5166819,0.467428 -1.148182,1.081987 L 2.0839846,12.794313 2.0393563,8.7648442 1.9947278,4.7353754 1.9743648,8.6927652 c -0.0112,2.1765648 0.00471,4.0227188 0.035346,4.1025648 0.04349,0.113334 0.309568,-0.108163 1.2131734,-1.009908 0.6366056,-0.635295 1.1574647,-1.171009 1.1574643,-1.190475 z M 12.00601,7.7596434 V 2.5949909 l -0.294628,-0.2946278 -0.294628,-0.2946278 -4.3197636,0.020063 -4.3197639,0.020064 4.3041801,0.044928 4.3041804,0.044928 0.222229,0.2088332 c 0.122226,0.1148582 0.243727,0.3293299 0.270001,0.4766038 0.02627,0.1472739 0.03662,2.4439739 0.02299,5.1037778 l -0.02478,4.8360069 -0.216638,-0.19131 c -0.119151,-0.105221 -0.548094,-0.507074 -0.953208,-0.893005 -0.567476,-0.540607 -0.518082,-0.477938 0.215161,0.272988 0.523451,0.536076 0.981641,0.974683 1.018199,0.974683 0.03656,0 0.06647,-2.324094 0.06647,-5.1646524 z M 6.3236967,9.2939291 C 6.2785497,9.247273 5.5189884,9.5416773 5.4668483,9.6260422 5.4438525,9.6632502 5.6346765,9.6114356 5.8909016,9.5108982 6.1471269,9.4103608 6.3418846,9.3127246 6.3236967,9.2939291 Z M 2.4164407,2.2992318 C 2.6609388,2.0889234 2.6309513,2.0106135 2.3797686,2.2034654 2.120218,2.4027421 2.0406407,2.6867786 2.0543857,3.3648585 l 0.013729,0.677275 0.053929,-0.7680302 c 0.049118,-0.6995084 0.075383,-0.786484 0.294397,-0.9748715 z"
       id="path34"
       inkscape:connector-curvature="0"
       transform="matrix(0.26458333,0,0,0.26458333,21.58244,110.43095)" />
    <path
       style="fill:#ffcc00;fill-opacity:1;stroke-width:0.08665524"
       d="M 0.06723117,9.0898014 0.09091398,2.2223734 0.29694942,1.7665266 C 0.57284557,1.1561153 1.3571692,0.43293207 2.0069643,0.18981254 2.4897358,0.00918461 2.5884742,0.00612877 7.1442841,0.03081861 l 4.6450879,0.02517368 0.543184,0.29454996 c 0.649884,0.35240933 1.085701,0.81217155 1.394846,1.47148295 l 0.228351,0.4870034 0.02512,6.8241004 0.02512,6.8241 H 13.07833 12.15067 L 9.8719044,13.701386 C 8.6185836,12.460672 7.4713885,11.394351 7.3225825,11.331782 7.1737764,11.269215 6.9523145,11.237083 6.830445,11.26038 6.5974904,11.304912 4.8080444,12.950027 2.9085097,14.865985 L 1.8266195,15.957229 H 0.93508397 0.04354836 Z M 12.00601,7.7278698 V 2.618099 L 11.699828,2.3119171 11.393646,2.0057353 8.6019034,2.0261557 5.81016,2.0465763 l 2.7866992,0.024097 2.7866998,0.024097 0.267897,0.3051186 0.267899,0.3051186 v 5.0229888 c 0,2.7626447 -0.0282,5.0229887 -0.06266,5.0229887 -0.03446,0 -0.317176,-0.243717 -0.62825,-0.541595 l -0.565591,-0.541595 0.560755,0.584923 c 0.308416,0.321707 0.610626,0.584923 0.671578,0.584923 0.08874,0 0.110823,-1.018166 0.110823,-5.1097712 z M 3.2105027,11.797778 c 0.5226386,-0.524265 0.9307546,-0.953208 0.9069244,-0.953208 -0.02383,0 -0.470941,0.428943 -0.9935796,0.953208 -0.5226386,0.524264 -0.9307546,0.953207 -0.9069244,0.953207 0.02383,0 0.4709411,-0.428943 0.9935796,-0.953207 z M 2.0187554,9.3979838 c -0.015117,-0.5626984 -0.027536,-0.1262064 -0.027597,0.9699822 -6.08e-5,1.096189 0.012308,1.556579 0.027486,1.023088 0.015178,-0.53349 0.015228,-1.4303718 1.126e-4,-1.9930702 z m 3.8347322,0.10343 c 0.119151,-0.068113 0.1776433,-0.1238416 0.1299829,-0.1238416 -0.04766,0 -0.1841424,0.055729 -0.3032933,0.1238416 -0.119151,0.068113 -0.1776433,0.1238416 -0.1299829,0.1238416 0.04766,0 0.1841424,-0.055729 0.3032933,-0.1238416 z M 2.3918043,2.2869265 2.5990281,2.0490629 2.3457585,2.285082 C 2.1192872,2.4961282 2.0904434,2.5832328 2.0731566,3.1083068 L 2.0538241,3.6955125 2.1192023,3.1101513 C 2.1672351,2.680091 2.2395585,2.4616831 2.3918043,2.2869265 Z"
       id="path36"
       inkscape:connector-curvature="0"
       transform="matrix(0.26458333,0,0,0.26458333,21.58244,110.43095)" />
    <path
       style="fill:#ffcc00;fill-opacity:1;stroke-width:0.08665524"
       d="M 0.06724285,9.0464737 0.09091398,2.1357181 0.32056741,1.7007258 C 0.6117112,1.1492631 1.3042334,0.49842113 1.8900992,0.22565825 l 0.4538511,-0.21130053 4.6460766,-8.4653e-4 4.6460771,-8.4652e-4 0.609711,0.30502626 c 0.704923,0.35265863 1.156631,0.81130197 1.481587,1.50433427 l 0.228351,0.4870034 0.02418,6.8241004 0.02418,6.8241 h -0.93511 -0.935107 L 10.791788,14.605804 C 10.053629,13.862521 8.9703008,12.80966 8.3843928,12.266113 7.4709006,11.418667 7.2781221,11.277846 7.0314882,11.277846 c -0.3897989,0 -0.5893437,0.167671 -3.0991325,2.604099 l -2.13777,2.075284 H 0.91907874 0.04357172 Z M 3.1671751,11.841105 c 0.4030088,-0.405113 0.7132458,-0.736569 0.6894156,-0.736569 -0.02383,0 -0.3730621,0.331456 -0.7760708,0.736569 -0.4030088,0.405114 -0.7132458,0.73657 -0.6894156,0.73657 0.02383,0 0.3730621,-0.331456 0.7760708,-0.73657 z M 11.685885,2.3351189 11.36425,2.0057353 l -1.6505269,0.019632 -1.6505268,0.019632 1.6443717,0.025679 1.644371,0.025679 0.283708,0.2749805 0.283708,0.2749806 0.0209,4.7273756 0.0209,4.727376 0.02318,-4.7182846 0.02318,-4.7182843 z M 2.1003907,2.8939515 c -0.021796,-0.083406 -0.03963,-0.015165 -0.03963,0.1516467 0,0.1668113 0.017833,0.2350523 0.03963,0.1516466 0.021796,-0.083406 0.021796,-0.2198876 0,-0.3032933 z M 2.239107,2.5255471 C 2.264051,2.4301601 2.249097,2.3739697 2.205886,2.4006784 2.16267,2.4273874 2.127312,2.5054306 2.127312,2.5741085 c 0,0.1793547 0.058882,0.1537775 0.111795,-0.048561 z"
       id="path38"
       inkscape:connector-curvature="0"
       transform="matrix(0.26458333,0,0,0.26458333,21.58244,110.43095)" />
    <path
       style="fill:#ffcc00;fill-opacity:1;stroke-width:0.08665524"
       d="M 0.06724285,9.0464737 0.09091398,2.1357181 0.32056741,1.7007258 C 0.6117112,1.1492631 1.3042334,0.49842113 1.8900992,0.22565825 L 2.3439503,0.01435772 7.0041408,0.01351119 11.664331,0.01266467 12.184355,0.27517182 C 12.88821,0.63047635 13.30993,1.0313995 13.661203,1.6791887 l 0.29455,0.5431847 0.02416,6.867428 0.02416,6.8674276 H 13.080898 12.157714 L 10.034386,13.870023 C 7.7592659,11.633605 7.3405704,11.277374 6.988668,11.278688 6.6700138,11.279875 6.2633438,11.627609 3.8902343,13.928072 L 1.7969982,15.957229 H 0.92028499 0.04357172 Z M 3.1671751,11.841105 c 0.3070389,-0.309792 0.538755,-0.563259 0.5149248,-0.563259 -0.02383,0 -0.2945412,0.253467 -0.60158,0.563259 -0.3070389,0.309793 -0.538755,0.563259 -0.5149248,0.563259 0.02383,0 0.2945412,-0.253466 0.60158,-0.563259 z m 8.5192129,-9.5054707 -0.322138,-0.329899 -1.000613,0.018523 -1.000612,0.018523 0.995537,0.027836 c 0.984292,0.027522 0.99873,0.03093 1.278165,0.3017691 l 0.282628,0.2739334 0.02038,2.734305 0.02038,2.7343051 0.0242,-2.7246983 0.0242,-2.7246982 z M 2.0998524,2.9426951 c -0.027663,-0.069128 -0.048196,-0.048594 -0.052354,0.052354 -0.00376,0.091349 0.016718,0.1425298 0.045513,0.113735 0.028795,-0.028795 0.031873,-0.103535 0.00684,-0.1660892 z m 0.086655,-0.4332762 c -0.027663,-0.069128 -0.048196,-0.048594 -0.052354,0.052354 -0.00376,0.091349 0.016718,0.1425298 0.045513,0.113735 0.028795,-0.028795 0.031873,-0.103535 0.00684,-0.1660892 z"
       id="path40"
       inkscape:connector-curvature="0"
       transform="matrix(0.26458333,0,0,0.26458333,21.58244,110.43095)" />
    <path
       style="fill:#ffcc00;fill-opacity:1;stroke-width:0.08665524"
       d="M 0.04758636,9.1060102 V 2.2547912 L 0.27894963,1.7822858 C 0.55505265,1.2184099 1.2357191,0.54937258 1.849966,0.23811011 L 2.2948612,0.01266467 h 4.684735 4.6847348 l 0.520024,0.26250715 C 12.920642,0.64684832 13.342696,1.063608 13.694054,1.76593 L 13.99908,2.3756417 V 9.1664358 15.957229 H 13.080165 12.161249 L 10.112223,13.950551 C 7.8731038,11.757709 7.3207524,11.27768 7.0372158,11.27817 6.6997529,11.278777 6.3434776,11.577848 4.0564368,13.780538 L 1.79639,15.957229 H 0.92198819 0.04758636 Z M 3.1238475,11.884433 c 0.1861565,-0.190642 0.3189689,-0.346621 0.2951387,-0.346621 -0.02383,0 -0.1956374,0.155979 -0.381794,0.346621 -0.1861565,0.190641 -0.3189689,0.346621 -0.2951387,0.346621 0.02383,0 0.1956375,-0.15598 0.381794,-0.346621 z M 11.857868,2.5316472 c -0.09819,-0.086736 -0.114919,-0.09047 -0.04621,-0.010313 0.07036,0.082092 0.11416,0.4876363 0.126334,1.1698457 l 0.01863,1.0441957 0.02758,-1.0338824 c 0.02409,-0.9031998 0.0081,-1.0510681 -0.126333,-1.1698458 z M 11.529406,2.1790457 C 11.395597,2.0311888 11.275902,2.0082964 10.714414,2.0231741 l -0.658147,0.017439 0.663878,0.029395 c 0.446677,0.019778 0.698219,0.070774 0.768843,0.1558717 0.05773,0.069562 0.125733,0.1264763 0.151114,0.1264763 0.02538,0 -0.02443,-0.07799 -0.110696,-0.1733104 z"
       id="path42"
       inkscape:connector-curvature="0"
       transform="matrix(0.26458333,0,0,0.26458333,21.58244,110.43095)" />
    <path
       style="fill:#ffcc00;fill-opacity:1;stroke-width:0.08665524"
       d="M 0.04758636,9.0851514 V 2.2130743 L 0.26703741,1.7726934 C 0.53464677,1.2356714 1.2500656,0.54210267 1.849966,0.23811011 L 2.2948612,0.01266467 h 4.68763 4.6876298 l 0.460318,0.2177653 C 12.8104,0.55210303 13.323397,1.0485433 13.683016,1.7329005 L 13.99908,2.3343724 V 9.1458006 15.957229 H 13.081272 12.163463 L 10.156658,13.995924 C 7.983098,11.871645 7.2968375,11.277985 7.0146712,11.277901 6.716155,11.277814 6.2630023,11.66477 3.9902224,13.860554 l -2.1662036,2.092817 -0.8882162,0.0019 -0.88821624,0.0019 z M 3.1782284,11.819442 c 0.107788,-0.137441 0.104723,-0.140506 -0.032717,-0.03272 -0.083406,0.06541 -0.1516467,0.133653 -0.1516467,0.151647 0,0.07132 0.07116,0.02542 0.1843638,-0.118929 z M 11.98248,2.9806067 c -0.0187,-0.1787264 -0.03399,-0.032496 -0.03399,0.3249572 0,0.3574529 0.0153,0.5036836 0.03399,0.3249572 0.01869,-0.1787265 0.01869,-0.4711879 0,-0.6499144 z M 11.162313,2.0313912 c -0.106581,-0.020569 -0.301555,-0.021101 -0.433276,-0.00118 -0.131722,0.019918 -0.04452,0.036747 0.193782,0.037398 0.238302,6.499e-4 0.346075,-0.015646 0.239494,-0.036215 z"
       id="path44"
       inkscape:connector-curvature="0"
       transform="matrix(0.26458333,0,0,0.26458333,21.58244,110.43095)" />
    <path
       style="fill:#ffcc00;fill-opacity:1;stroke-width:0.08665524"
       d="M 0.04839954,9.0464737 0.04921237,2.1357181 0.29779734,1.7024419 C 0.6105028,1.1574062 1.2786794,0.52760295 1.852959,0.23659345 L 2.2948612,0.01266467 h 4.7085772 4.7085776 l 0.442466,0.22049056 c 0.673115,0.33542722 1.175966,0.82880747 1.528534,1.49974527 L 13.99908,2.3343724 V 9.1458006 15.957229 H 13.082036 12.164991 L 10.114094,13.971692 C 7.1259662,11.078793 7.1362541,11.085944 6.5483356,11.493372 6.3613638,11.622943 5.2219039,12.680236 4.0162028,13.842912 l -2.192184,2.113955 -0.8882162,1.81e-4 -0.88821624,1.81e-4 z M 11.979089,3.067262 c -0.0218,-0.083406 -0.03963,-0.015165 -0.03963,0.1516467 0,0.1668113 0.01783,0.2350523 0.03963,0.1516466 0.02179,-0.083406 0.02179,-0.2198876 0,-0.3032933 z M 11.074466,2.0350004 c -0.05957,-0.024039 -0.157063,-0.024039 -0.216638,0 -0.05958,0.024039 -0.01083,0.043708 0.108319,0.043708 0.119151,0 0.167895,-0.019668 0.108319,-0.043708 z"
       id="path46"
       inkscape:connector-curvature="0"
       transform="matrix(0.26458333,0,0,0.26458333,21.58244,110.43095)" />
    <path
       style="fill:#ffcc00;fill-opacity:1;stroke-width:0.08665524"
       d="M 0.04839954,9.0464737 0.04921237,2.1357181 0.29779734,1.7024419 C 0.6105028,1.1574062 1.2786794,0.52760295 1.852959,0.23659345 L 2.2948612,0.01266467 h 4.7351255 4.7351263 l 0.51582,0.2749298 C 12.89697,0.61593819 13.457241,1.2127108 13.770386,1.8740836 L 13.99908,2.3570938 V 9.157162 15.957229 H 13.080549 12.162017 L 10.155934,14.017223 C 8.0811754,12.010802 7.4997126,11.48736 7.1869915,11.344535 6.8197734,11.17682 6.558867,11.389232 3.5706508,14.288714 L 1.8510732,15.957229 H 0.94932974 0.04758636 Z"
       id="path48"
       inkscape:connector-curvature="0"
       transform="matrix(0.26458333,0,0,0.26458333,21.58244,110.43095)" />
    <path
       style="fill:#ffcc00;fill-opacity:1;stroke-width:0.08665524"
       d="M 0.04839954,9.0464737 0.04921237,2.1357181 0.29779734,1.7024419 C 0.6105028,1.1574062 1.2786794,0.52760295 1.852959,0.23659345 L 2.2948612,0.01266467 h 4.7284722 4.7284726 l 0.441902,0.22392878 C 12.835906,0.56202023 13.415505,1.144887 13.727886,1.7794221 L 13.99908,2.3302964 V 9.1437625 15.957229 H 13.082007 12.164934 L 9.9418066,13.821765 C 8.7190873,12.64726 7.5701835,11.588031 7.3886881,11.467923 7.0740046,11.259676 7.0456285,11.255777 6.7769902,11.383881 6.4468352,11.541322 5.6211605,12.295261 3.4567185,14.415685 L 1.8831741,15.957229 H 0.96538029 0.04758636 Z"
       id="path50"
       inkscape:connector-curvature="0"
       transform="matrix(0.26458333,0,0,0.26458333,21.58244,110.43095)" />
    <path
       style="fill:#ffcc00;fill-opacity:1;stroke-width:0.08665524"
       d="M 0.04839954,9.0464737 0.04921237,2.1357181 0.2986865,1.7024419 C 0.63998444,1.1096906 1.2072301,0.56651575 1.7998839,0.26494761 L 2.2956805,0.01266467 h 4.7280625 4.728063 l 0.438213,0.22205927 c 0.613259,0.3107621 1.1589,0.84170746 1.509753,1.46909156 l 0.299308,0.535213 v 6.8591004 6.8591001 l -0.931543,-0.0037 -0.931544,-0.0037 -2.109402,-2.031756 C 7.8238593,11.79641 7.4039596,11.425184 7.0998241,11.330554 6.8163752,11.24236 6.14001,11.80478 3.8900094,13.999622 l -2.006806,1.957607 H 0.96539493 0.04758636 Z"
       id="path52"
       inkscape:connector-curvature="0"
       transform="matrix(0.26458333,0,0,0.26458333,21.58244,110.43095)" />
    <path
       style="fill:#ffcc00;fill-opacity:1;stroke-width:0.08665524"
       d="M 0.04839954,9.0464737 0.04921271,2.1357181 0.29834354,1.7013947 C 0.62225673,1.1366989 1.2322033,0.54929274 1.8024828,0.2528402 l 0.4548123,-0.23642831 4.7539086,-0.0018736 4.7539093,-0.0018736 0.50927,0.27143852 c 0.603464,0.32164332 1.190503,0.92165489 1.500769,1.53393409 l 0.223928,0.4419022 v 6.8486453 6.8486442 l -0.931543,-0.0021 -0.931544,-0.0021 L 9.9696117,13.87005 C 7.7077326,11.695317 7.1824082,11.263803 6.8898902,11.340298 c -0.2478207,0.06481 -1.3457706,1.047827 -3.301857,2.95623 L 1.8858378,15.957229 H 0.96671209 0.04758636 Z"
       id="path54"
       inkscape:connector-curvature="0"
       transform="matrix(0.26458333,0,0,0.26458333,21.58244,110.43095)" />
  </g>
</svg>
