<?xml version="1.0" encoding="UTF-8" standalone="no"?>
<!-- Generator: Adobe Illustrator 16.0.0, SVG Export Plug-In . SVG Version: 6.00 Build 0)  -->

<svg
   xmlns:dc="http://purl.org/dc/elements/1.1/"
   xmlns:cc="http://creativecommons.org/ns#"
   xmlns:rdf="http://www.w3.org/1999/02/22-rdf-syntax-ns#"
   xmlns:svg="http://www.w3.org/2000/svg"
   xmlns="http://www.w3.org/2000/svg"
   xmlns:sodipodi="http://sodipodi.sourceforge.net/DTD/sodipodi-0.dtd"
   xmlns:inkscape="http://www.inkscape.org/namespaces/inkscape"
   version="1.1"
   id="Capa_1"
   x="0px"
   y="0px"
   width="95.098px"
   height="95.098px"
   viewBox="0 0 95.098 95.098"
   style="enable-background:new 0 0 95.098 95.098;"
   xml:space="preserve"
   sodipodi:docname="compass.svg"
   inkscape:version="0.92.5 (2060ec1f9f, 2020-04-08)"><metadata
   id="metadata45"><rdf:RDF><cc:Work
       rdf:about=""><dc:format>image/svg+xml</dc:format><dc:type
         rdf:resource="http://purl.org/dc/dcmitype/StillImage" /></cc:Work></rdf:RDF></metadata><defs
   id="defs43" /><sodipodi:namedview
   pagecolor="#ffffff"
   bordercolor="#666666"
   borderopacity="1"
   objecttolerance="10"
   gridtolerance="10"
   guidetolerance="10"
   inkscape:pageopacity="0"
   inkscape:pageshadow="2"
   inkscape:window-width="826"
   inkscape:window-height="480"
   id="namedview41"
   showgrid="false"
   inkscape:zoom="2.4816505"
   inkscape:cx="47.549"
   inkscape:cy="47.549"
   inkscape:window-x="2655"
   inkscape:window-y="263"
   inkscape:window-maximized="0"
   inkscape:current-layer="Capa_1" />
<g
   id="g8"
   transform="rotate(-180,47.549,47.549)">
	<g
   id="g6">
		<path
   d="M 47.549,0 C 21.288,0 0,21.288 0,47.549 0,73.81 21.288,95.098 47.549,95.098 73.811,95.098 95.098,73.81 95.098,47.549 95.098,21.288 73.811,0 47.549,0 Z m 0,85.098 C 26.844,85.098 10,68.253 10,47.549 10,26.845 26.844,10 47.549,10 c 20.705,0 37.549,16.845 37.549,37.549 0,20.704 -16.844,37.549 -37.549,37.549 z"
   id="path2"
   inkscape:connector-curvature="0" />
		<path
   d="m 77.665,29.911 c -0.25,-0.428 -0.755,-0.633 -1.231,-0.503 l -33.783,9.213 c -0.186,0.052 -0.355,0.151 -0.492,0.288 L 17.596,63.865 c -0.346,0.354 -0.414,0.895 -0.164,1.32 0.25,0.428 0.755,0.635 1.232,0.504 l 33.783,-9.214 c 0.093,-0.024 0.182,-0.062 0.265,-0.11 0.083,-0.049 0.159,-0.108 0.228,-0.178 L 77.502,31.23 c 0.346,-0.351 0.413,-0.893 0.163,-1.319 z m -50.96,29.845 16.46,-16.725 6.179,10.551 z"
   id="path4"
   inkscape:connector-curvature="0" />
	</g>
</g>
<g
   id="g10">
</g>
<g
   id="g12">
</g>
<g
   id="g14">
</g>
<g
   id="g16">
</g>
<g
   id="g18">
</g>
<g
   id="g20">
</g>
<g
   id="g22">
</g>
<g
   id="g24">
</g>
<g
   id="g26">
</g>
<g
   id="g28">
</g>
<g
   id="g30">
</g>
<g
   id="g32">
</g>
<g
   id="g34">
</g>
<g
   id="g36">
</g>
<g
   id="g38">
</g>
</svg>