<?xml version="1.0" encoding="UTF-8" standalone="no"?>
<!-- Created with Inkscape (http://www.inkscape.org/) -->

<svg
   xmlns:dc="http://purl.org/dc/elements/1.1/"
   xmlns:cc="http://creativecommons.org/ns#"
   xmlns:rdf="http://www.w3.org/1999/02/22-rdf-syntax-ns#"
   xmlns:svg="http://www.w3.org/2000/svg"
   xmlns="http://www.w3.org/2000/svg"
   xmlns:sodipodi="http://sodipodi.sourceforge.net/DTD/sodipodi-0.dtd"
   xmlns:inkscape="http://www.inkscape.org/namespaces/inkscape"
   width="6.7739663in"
   height="2.1899822in"
   viewBox="0 0 650.30077 210.23829"
   version="1.1"
   id="svg8"
   sodipodi:docname="photogram-logo.svg"
   inkscape:version="0.92.5 (2060ec1f9f, 2020-04-08)">
  <defs
     id="defs2" />
  <sodipodi:namedview
     id="base"
     pagecolor="#ffffff"
     bordercolor="#666666"
     borderopacity="1.0"
     inkscape:pageopacity="0.0"
     inkscape:pageshadow="2"
     inkscape:zoom="1"
     inkscape:cx="294.37673"
     inkscape:cy="8.4231591"
     inkscape:document-units="px"
     inkscape:current-layer="layer1"
     showgrid="false"
     units="in"
     inkscape:window-width="1920"
     inkscape:window-height="1019"
     inkscape:window-x="1920"
     inkscape:window-y="36"
     inkscape:window-maximized="1" />
  <metadata
     id="metadata5">
    <rdf:RDF>
      <cc:Work
         rdf:about="">
        <dc:format>image/svg+xml</dc:format>
        <dc:type
           rdf:resource="http://purl.org/dc/dcmitype/StillImage" />
        <dc:title></dc:title>
      </cc:Work>
    </rdf:RDF>
  </metadata>
  <g
     inkscape:label="Layer 1"
     inkscape:groupmode="layer"
     id="layer1"
     transform="translate(-9.8007812,-118.94375)">
    <flowRoot
       xml:space="preserve"
       id="flowRoot283"
       style="font-style:normal;font-weight:normal;font-size:40px;line-height:1.25;font-family:sans-serif;letter-spacing:0px;word-spacing:0px;fill:#000000;fill-opacity:1;stroke:none"><flowRegion
         id="flowRegion285"><rect
           id="rect287"
           width="705.71429"
           height="300"
           x="31.428572"
           y="221.71428" /></flowRegion><flowPara
         id="flowPara289"></flowPara></flowRoot>    <path
       style="font-style:normal;font-variant:normal;font-weight:normal;font-stretch:normal;font-size:192px;line-height:1.25;font-family:Billabong;-inkscape-font-specification:Billabong;letter-spacing:0px;word-spacing:0px;fill:#000000;fill-opacity:1;stroke:none"
       d="m 153.99219,101.34375 c -0.768,0 -1.79227,0.0634 -3.07227,0.19141 -1.152,0 -2.30503,0.12681 -3.45703,0.38281 -1.152,0.128 -2.17431,0.38553 -3.07031,0.76953 -0.896,0.256 -1.3457,0.63839 -1.3457,1.15039 0,0.896 0.19217,1.66469 0.57617,2.30469 0.512,0.64 0.76953,1.85644 0.76953,3.64844 v 110.40039 c 0,2.688 -0.25753,4.479 -0.76953,5.375 -0.384,0.896 -0.57617,1.47251 -0.57617,1.72851 0,1.152 0.32093,2.11091 0.96093,2.87891 0.768,0.64 1.6635,1.15311 2.6875,1.53711 1.024,0.384 2.04827,0.63958 3.07227,0.76758 1.024,0.128 1.9195,0.1914 2.6875,0.1914 1.92,0 3.58419,-0.19022 4.99219,-0.57422 1.536,-0.384 2.9446,-0.70493 4.22461,-0.96093 0.12799,-4.48 0.57575,-9.21504 1.34374,-14.20704 0.768,-5.12 1.72886,-10.11256 2.88086,-14.97656 1.28,-4.864 2.68666,-9.40881 4.22266,-13.63281 1.536,-4.352 3.07338,-7.93595 4.60938,-10.75195 -0.128,1.28 -0.19336,2.81542 -0.19336,4.60742 v 4.22461 c 0,6.656 0.12876,12.79964 0.38476,18.43164 0.384,5.632 1.15269,10.49579 2.30469,14.5918 1.28,3.968 3.071,7.1042 5.375,9.4082 2.432,2.304 5.63161,3.45703 9.59961,3.45703 4.096,0 7.55314,-1.15303 10.36914,-3.45703 2.944,-2.432 5.31151,-5.18386 7.10352,-8.25586 0.11214,-0.18691 0.20579,-0.37364 0.31445,-0.56055 0.93816,1.64445 2.03581,3.24357 3.33398,4.78516 2.048,2.432 4.6711,4.54394 7.8711,6.33594 1.024,0.64 2.24043,1.21651 3.64843,1.72851 1.408,0.64 2.88002,1.15116 4.41602,1.53516 1.536,0.512 3.00802,0.89634 4.41602,1.15234 1.536,0.256 2.87925,0.38477 4.03124,0.38477 3.45601,0 6.46344,-1.02427 9.02344,-3.07227 2.688,-1.92 4.92871,-4.28751 6.72071,-7.10351 1.92,-2.816 3.39201,-5.69663 4.41601,-8.64063 1.024,-2.944 1.66392,-5.37687 1.91992,-7.29687 0.128,-0.512 0.19141,-1.15193 0.19141,-1.91993 0.128,-0.896 0.25677,-2.43142 0.38477,-4.60742 1.28,-1.024 2.49643,-2.11167 3.64843,-3.26367 1.28,-1.152 2.43108,-2.43184 3.45508,-3.83984 0.53975,-0.69397 1.06355,-1.43558 1.58008,-2.19922 -0.0128,0.60105 -0.0312,1.21555 -0.043,1.81445 v 1.72852 c 0,5.504 0.44775,10.68678 1.34375,15.55078 0.896,4.736 2.17584,8.89647 3.83984,12.48047 1.792,3.456 3.96735,6.14445 6.52735,8.06445 2.56,2.048 5.56743,3.07226 9.02344,3.07226 3.584,10e-6 6.7202,-1.47201 9.4082,-4.41601 2.688,-2.944 4.9287,-6.33578 6.7207,-10.17578 0.96349,-1.99121 1.81292,-3.9834 2.55078,-5.97461 0.11035,0.32722 0.20914,0.6552 0.32813,0.98242 1.152,2.688 2.75278,5.24769 4.80078,7.67969 2.048,2.432 4.67109,4.54394 7.87109,6.33594 1.024,0.64 2.24044,1.21651 3.64844,1.72851 1.408,0.64 2.88002,1.15116 4.41602,1.53516 1.536,0.512 3.00801,0.89634 4.41601,1.15234 1.536,0.256 2.8812,0.38477 4.0332,0.38477 3.456,0 6.46344,-1.02427 9.02344,-3.07227 2.688,-1.92 4.92871,-4.28751 6.72071,-7.10351 1.92,-2.816 3.39006,-5.69663 4.41406,-8.64063 1.024,-2.944 1.66587,-5.37687 1.92187,-7.29687 0.128,-0.512 0.19141,-1.15193 0.19141,-1.91993 0.128,-0.896 0.25481,-2.43142 0.38281,-4.60742 1.28,-1.024 2.49644,-2.11167 3.64844,-3.26367 1.28,-1.152 2.43303,-2.43184 3.45703,-3.83984 1.04802,-1.34746 2.0454,-2.84299 3.00586,-4.45313 -0.20494,3.5273 -0.31836,6.99996 -0.31836,10.4043 0,4.992 0.25558,9.53681 0.76758,13.63281 0.512,3.968 1.4075,7.42319 2.6875,10.36719 1.408,2.944 3.26436,5.24811 5.56836,6.91211 2.432,1.664 5.43943,2.62486 9.02344,2.88086 1.408,0 2.49762,0.19217 3.26562,0.57617 0.768,0.384 1.6635,0.57422 2.6875,0.57422 1.92,0 3.64759,-0.70333 5.18359,-2.11133 1.536,-1.28 2.88121,-2.81542 4.03321,-4.60742 1.28,-1.792 2.36767,-3.64836 3.26367,-5.56836 0.896,-2.048 1.66273,-3.64878 2.30273,-4.80078 0,2.816 -0.0634,5.56786 -0.1914,8.25586 -0.128,2.688 -0.32017,5.37645 -0.57618,8.06445 v 0.19336 c -1.408,1.024 -3.07218,2.30384 -4.99218,3.83984 -1.792,1.664 -3.45619,3.26283 -4.99219,4.79883 -2.944,2.944 -5.69586,6.27238 -8.25586,9.98438 -2.432,3.84 -4.54394,7.80829 -6.33594,11.90429 -1.792,4.224 -3.19865,8.51128 -4.22265,12.86328 -0.896,4.48 -1.34571,8.83264 -1.34571,13.05664 0,4.224 0.89746,7.55238 2.68946,9.98438 1.92,2.56 4.28751,4.47976 7.10351,5.75976 2.944,1.28 6.14361,2.04674 9.59961,2.30274 3.584,0.384 6.97578,0.57617 10.17578,0.57617 3.712,0 6.59263,-1.21448 8.64063,-3.64648 2.176,-2.304 3.84019,-5.44021 4.99219,-9.40821 1.152,-3.84 1.85532,-8.25604 2.11132,-13.24804 0.384,-4.864 0.57618,-9.85657 0.57618,-14.97657 v -15.16796 c 0,-5.248 -0.0634,-9.60065 -0.19141,-13.05665 l 0.19141,-2.30273 c 0,-0.768 0.32093,-1.15234 0.96093,-1.15234 l 3.83985,0.38281 c 1.024,0 2.11167,-0.25558 3.26367,-0.76758 1.152,-0.512 1.72851,-1.4075 1.72851,-2.6875 0,-1.408 -1.02426,-2.49567 -3.07226,-3.26367 -1.92,-0.64 -3.45738,-0.96094 -4.60938,-0.96094 h -0.57617 c -0.256,0.128 -0.51158,0.19336 -0.76758,0.19336 h -0.76757 c -0.128,-1.792 -0.19141,-4.0327 -0.19141,-6.7207 v -6.72071 -7.29492 c 0.128,-2.816 0.25481,-5.50445 0.38281,-8.06445 0.128,-2.688 0.32017,-5.12087 0.57617,-7.29687 0.256,-2.304 0.57694,-3.96624 0.96094,-4.99024 0.128,-0.256 0.44699,-0.83251 0.95899,-1.72852 0.64,-1.024 0.96093,-1.66392 0.96093,-1.91992 0,-1.024 -0.38434,-1.66392 -1.15234,-1.91992 -0.768,-0.384 -1.6635,-0.70494 -2.6875,-0.96094 -0.896,-0.256 -1.72809,-0.57498 -2.49609,-0.95898 -0.768,-0.384 -1.15235,-1.08928 -1.15235,-2.11328 0,-2.56 0.12877,-4.67194 0.38477,-6.33594 0.384,-1.664 0.57422,-3.51841 0.57422,-5.56641 0,-2.944 -0.44775,-5.37687 -1.34375,-7.29687 -0.896,-2.048 -2.11049,-3.64878 -3.64649,-4.80078 -1.536,-1.28 -3.39236,-2.30231 -5.56836,-3.07031 -2.176,-0.768 -4.54351,-1.40988 -7.10351,-1.92188 -0.512,-0.128 -1.28069,-0.38358 -2.30469,-0.76758 -0.896,-0.512 -1.85686,-0.95975 -2.88086,-1.34375 -0.896,-0.512 -1.7915,-0.95975 -2.6875,-1.34375 -0.768,-0.384 -1.40792,-0.57617 -1.91992,-0.57617 -4.608,0 -8.44753,1.72759 -11.51953,5.18359 -2.944,3.328 -5.31152,7.68064 -7.10352,13.05665 -0.89839,2.63101 -1.66952,5.40756 -2.31055,8.32812 -0.87078,0.15252 -1.51345,0.57042 -1.91406,1.27148 -0.512,0.768 -1.02511,1.85568 -1.53711,3.26368 -0.384,1.28 -0.95856,2.68861 -1.72656,4.22461 -0.64,1.536 -1.53745,3.20018 -2.68945,4.99218 -1.152,1.664 -2.68743,3.26478 -4.60743,4.80078 0,-2.176 -0.0634,-4.28989 -0.1914,-6.33789 -0.128,-2.048 -0.32017,-3.96776 -0.57617,-5.75976 -0.384,-3.2 -0.89711,-6.3362 -1.53711,-9.4082 -0.64,-3.20001 -1.59891,-5.50216 -2.87891,-6.91016 -1.664,-1.92 -3.45695,-3.84172 -5.37695,-5.76172 -1.792,-2.048 -3.64641,-3.839 -5.56641,-5.375 -1.92,-1.536 -3.90512,-2.81584 -5.95312,-3.83984 -2.048,-1.024 -4.09653,-1.53711 -6.14453,-1.53711 -1.664,0 -3.51841,0.38434 -5.56641,1.15234 -2.048,0.64 -3.90436,1.85644 -5.56836,3.64844 -1.664,1.92 -3.39159,4.60845 -5.18359,8.06445 -1.792,3.456 -3.39278,7.35894 -4.80078,11.71094 -1.40801,4.352 -2.62444,8.89681 -3.64844,13.63281 -0.67364,3.56066 -1.09259,7.08396 -1.25977,10.57227 -0.16391,0.56218 -0.32127,1.18056 -0.46679,1.9082 -0.64,3.2 -1.40869,6.3362 -2.30469,9.4082 -0.896,3.072 -1.92027,5.82386 -3.07227,8.25586 -1.152,2.432 -2.43184,4.35177 -3.83984,5.75977 -1.408,1.408 -2.94342,2.11133 -4.60742,2.11133 -1.152,0 -2.17627,-0.57652 -3.07227,-1.72852 -0.768,-1.152 -1.40792,-2.62402 -1.91992,-4.41602 -0.512,-1.91999 -0.89634,-4.03193 -1.15235,-6.33593 -0.256,-2.304 -0.38476,-4.67152 -0.38476,-7.10352 0,-6.4 0.0654,-12.48023 0.19336,-18.24023 0.128,-5.888 0.25481,-11.07078 0.38281,-15.55078 0.256,-4.48 0.44817,-8.06396 0.57617,-10.75196 0.256,-2.816 0.44818,-4.35337 0.57618,-4.60937 0.256,-0.512 1.40903,-0.89635 3.45703,-1.15235 2.176,-0.384 4.54351,-0.70298 7.10351,-0.95898 2.56,-0.256 4.99092,-0.44817 7.29492,-0.57617 2.304,-0.128 3.71261,-0.19141 4.22461,-0.19141 1.92,0 3.07303,0.19217 3.45703,0.57617 0.512,0.384 0.8944,0.57618 1.1504,0.57618 0.38399,0 0.70493,-0.25754 0.96093,-0.76954 0.256,-0.64 0.38477,-1.08775 0.38477,-1.34375 0,-1.664 -0.70528,-2.88043 -2.11328,-3.64843 -1.28,-0.896 -3.0076,-1.53593 -5.1836,-1.91993 -2.048,-0.38399 -4.2887,-0.57617 -6.7207,-0.57617 h -6.71875 c -2.048,-0.128 -3.77559,-0.31822 -5.18359,-0.57422 -1.28,-0.384 -1.92188,-0.96051 -1.92188,-1.72851 l 2.11328,-24.96094 c 0,-0.768 -0.70528,-1.47133 -2.11328,-2.11133 -1.28,-0.64 -2.81542,-1.15311 -4.60742,-1.53711 -1.792,-0.512 -3.51959,-0.89439 -5.18359,-1.15039 -1.664,-0.256 -2.81704,-0.38476 -3.45704,-0.38476 -0.512,0 -0.95975,0.76868 -1.34375,2.30469 -0.256,1.536 -0.44817,3.51917 -0.57617,5.95117 -0.128,2.304 -0.25481,4.80028 -0.38281,7.48828 0,2.688 -0.0634,5.24769 -0.19141,7.67969 0,2.304 -0.12876,4.22376 -0.38476,5.75976 -0.128,1.536 -0.44894,2.30469 -0.96094,2.30469 -6.528,0 -11.4552,0.12876 -14.7832,0.38476 -3.328,0.256 -4.99219,1.21491 -4.99219,2.87891 0,1.92 1.02427,3.32861 3.07227,4.22461 2.048,0.768 4.3521,1.34452 6.91211,1.72852 2.56,0.384 4.8641,0.76639 6.9121,1.15039 2.048,0.384 3.07227,1.08928 3.07227,2.11328 -0.256,5.76 -0.51158,12.03045 -0.76758,18.81445 -0.0295,0.78212 -0.0503,1.54551 -0.0781,2.32422 -0.10234,0.25585 -0.20431,0.46662 -0.30664,0.74805 -0.384,1.28 -0.96052,2.68861 -1.72852,4.22461 -0.64,1.536 -1.5355,3.20018 -2.6875,4.99218 -1.152,1.664 -2.68742,3.26478 -4.60742,4.80078 0,-2.176 -0.0654,-4.28989 -0.19336,-6.33789 -0.128,-2.048 -0.32017,-3.96776 -0.57617,-5.75976 -0.384,-3.2 -0.89516,-6.3362 -1.53516,-9.4082 -0.64,-3.20001 -1.60086,-5.50216 -2.88086,-6.91016 -1.664,-1.92 -3.455,-3.84172 -5.375,-5.76172 -1.792,-2.048 -3.64836,-3.839 -5.56836,-5.375 -1.92,-1.536 -3.90317,-2.81584 -5.95117,-3.83984 -2.048,-1.024 -4.09653,-1.53711 -6.14453,-1.53711 -1.664,0 -3.52036,0.38434 -5.56836,1.15234 -2.048,0.64 -3.90436,1.85644 -5.56836,3.64844 -1.664,1.92 -3.39159,4.60845 -5.18359,8.06445 -1.792,3.456 -3.39083,7.35894 -4.79883,11.71094 -1.408,4.352 -2.62444,8.89681 -3.64844,13.63281 -0.896,4.736 -1.34375,9.40763 -1.34375,14.01563 0,2.688 0.19217,5.50326 0.57617,8.44726 0.0563,0.41311 0.13302,0.82712 0.20313,1.24024 -0.42945,1.28578 -0.93956,2.53731 -1.54688,3.75195 -1.024,2.304 -2.3692,4.22376 -4.0332,5.75977 -1.664,1.53599 -3.77594,2.30468 -6.33594,2.30468 -2.56,0 -4.28759,-1.85636 -5.18359,-5.56836 -0.896,-3.712 -1.34375,-8.12804 -1.34375,-13.24804 0,-3.84 0.19217,-7.67953 0.57617,-11.51954 0.384,-3.968 0.76834,-7.55195 1.15234,-10.75195 0.512,-3.328 0.95975,-6.07986 1.34375,-8.25586 0.512,-2.176 0.83099,-3.45584 0.95899,-3.83984 0,-0.768 -0.19217,-1.34452 -0.57617,-1.72852 -0.256,-0.384 -0.63839,-0.76834 -1.15039,-1.15234 l -1.53711,-1.53516 c -0.512,-0.64 -1.02316,-1.72767 -1.53516,-3.26367 -0.64,-1.408 -2.24078,-2.36886 -4.80078,-2.88086 -2.432,-0.64 -4.35177,-0.95898 -5.75977,-0.95898 -1.28,0 -2.62325,1.15108 -4.03125,3.45508 -1.408,2.176 -2.81661,4.99321 -4.22461,8.44921 -1.28,3.328 -2.55984,6.97536 -3.83984,10.94336 -1.152,3.968 -2.17627,7.67877 -3.07226,11.13477 -0.896,3.456 -1.66469,6.33662 -2.30469,8.64062 -0.512,2.304 -0.76758,3.52044 -0.76758,3.64844 0.128,-9.088 0.19141,-16.12909 0.19141,-21.12109 0.128,-4.992 0.19336,-8.63936 0.19336,-10.94336 0.12799,-2.432 0.1914,-3.90402 0.1914,-4.41602 v -1.53515 c 0,-3.072 0.12877,-7.36124 0.38477,-12.86524 0.256,-5.632 0.63839,-11.4547 1.15039,-17.4707 0.512,-6.144 1.02511,-12.03206 1.53711,-17.66406 0.64,-5.76 1.27992,-10.36822 1.91992,-13.82422 -3.456,-1.408 -6.84778,-2.11133 -10.17578,-2.11133 z m -66.816409,2.87891 c -3.84,0 -8.448219,0.44775 -13.824219,1.34375 -5.248,0.768 -10.751718,1.92103 -16.511718,3.45703 -5.76,1.536 -11.455891,3.45576 -17.087891,5.75976 -5.632,2.304 -10.624562,4.86369 -14.976562,7.67969 -4.48,2.816 -8.063954,5.9522 -10.751953,9.4082 -2.816001,3.456 -4.2226568,7.16677 -4.2226568,11.13477 0,1.408 0.3189848,2.94537 0.9589848,4.60937 0.64,1.664 1.600859,3.26283 2.880859,4.79883 1.152,1.408 2.687422,2.62444 4.607422,3.64844 1.792,0.896 3.967344,1.34375 6.527344,1.34375 1.792,0 2.879671,-0.76673 3.263671,-2.30273 0.384,-1.664 0.576172,-3.00921 0.576172,-4.03321 l -3.263672,-10.75195 c 0,-1.664 0.768688,-3.32819 2.304688,-4.99219 1.408,-1.792 3.264359,-3.51959 5.568359,-5.18359 2.432,-1.664 5.1185,-3.26283 8.0625,-4.79883 2.944,-1.536 5.824625,-2.8812 8.640625,-4.0332 2.816,-1.152 5.441047,-2.11091 7.873047,-2.87891 2.56,-0.896 4.606578,-1.47252 6.142578,-1.72852 -0.384,2.432 -0.895156,6.14277 -1.535156,11.13477 -0.512,4.864 -1.088516,10.68866 -1.728515,17.47266 -0.512001,6.656 -0.95975,14.07948 -1.34375,22.27148 -0.384,8.192 -0.576172,16.70511 -0.576172,25.53711 0,10.496 0.06341,18.94375 0.191406,25.34375 0.256,6.272 0.832516,11.07239 1.728516,14.40039 0.896,3.328 2.241203,5.50334 4.033203,6.52734 1.92,1.024 4.543093,1.53711 7.871093,1.53711 0.384,0 1.34486,-0.12876 2.88086,-0.38476 1.536,-0.128 2.302734,-0.76792 2.302734,-1.91992 0,-0.256 -0.384344,-1.0881 -1.152344,-2.4961 -0.64,-1.408 -0.958984,-2.81661 -0.958984,-4.22461 v -2.11132 c 0,-0.512 -0.06341,-1.02511 -0.191406,-1.53711 v -1.72657 -2.30468 c 0,-5.376 0.126812,-10.2398 0.382812,-14.5918 0.384,-4.48 0.704938,-8.25613 0.960938,-11.32813 l 0.958984,0.57618 c 1.664,1.024 3.264781,1.98486 4.800781,2.88086 1.536,0.768 3.071422,1.15039 4.607422,1.15039 6.144,0 11.903297,-1.53543 17.279299,-4.60743 5.504,-3.2 10.30439,-7.36046 14.40039,-12.48046 4.096,-5.12 7.29561,-10.94271 9.59961,-17.47071 2.432,-6.656 3.64844,-13.50492 3.64844,-20.54492 0,-0.64 -0.12682,-2.55976 -0.38282,-5.75976 -0.128,-3.20001 -0.76792,-6.84736 -1.91992,-10.94336 -1.152,-4.096 -3.00836,-8.19307 -5.56836,-12.28907 -2.432,-4.096 -5.95254,-7.29561 -10.56054,-9.59961 -4.352,-2.176 -8.76805,-3.51925 -13.24805,-4.03125 -4.352002,-0.64 -8.768049,-0.96093 -13.248049,-0.96093 z m -7.679687,10.17578 c 3.584,0 7.615703,0.19217 12.095703,0.57617 4.48,0.256 8.703873,1.21686 12.671873,2.88086 4.096,1.664 7.48778,4.22369 10.17578,7.67969 2.816,3.328 4.22461,7.99962 4.22461,14.01562 0,4.608 -1.08767,9.98491 -3.26367,16.12891 -2.176,6.016 -4.92786,11.77529 -8.25586,17.27929 -3.2,5.376 -6.78395,9.98422 -10.751952,13.82422 -3.84,3.712 -7.489312,5.56836 -10.945312,5.56836 -3.584,0 -5.759344,-1.08962 -6.527344,-3.26562 -0.768,-2.176 -1.152344,-5.50242 -1.152344,-9.98242 l 2.113281,-54.33594 c 0.128,-1.408 -0.704093,-3.00878 -2.496093,-4.80078 -1.792,-1.792 -4.801391,-3.20061 -9.025391,-4.22461 2.944,-0.512 5.313469,-0.83099 7.105469,-0.95899 1.92,-0.256 3.26325,-0.38476 4.03125,-0.38476 z m 430.269526,32.64062 c -4.352,0 -8.06276,1.59883 -11.13476,4.79883 -3.072,3.072 -5.56828,7.29783 -7.48828,12.67383 -1.92,5.248 -3.32861,11.32628 -4.22461,18.23828 -0.6238,5.61422 -0.98053,11.49629 -1.09766,17.61719 -0.2873,1.4358 -0.65737,3.14172 -1.20508,5.42383 -0.64,3.2 -1.53745,6.3996 -2.68945,9.5996 -1.152,3.07201 -2.49525,5.82386 -4.03125,8.25586 -1.536,2.304 -3.26359,3.45704 -5.18359,3.45704 -1.152,0 -2.11286,-0.8321 -2.88086,-2.4961 -0.768,-1.664 -1.34256,-3.58376 -1.72656,-5.75976 -0.384,-2.176 -0.64154,-4.28794 -0.76954,-6.33594 -0.128,-2.048 -0.1914,-3.45661 -0.1914,-4.22461 0,-9.6 1.15303,-18.81644 3.45703,-27.64844 0,-0.256 0.12681,-0.76715 0.38281,-1.53515 0.256,-0.768 0.57694,-1.6001 0.96094,-2.4961 0.384,-1.024 0.70298,-1.98486 0.95898,-2.88086 0.256,-1.024 0.38477,-1.79268 0.38477,-2.30468 0,-1.53601 -0.8955,-2.68708 -2.6875,-3.45508 -1.664,-0.896 -3.64913,-1.53593 -5.95313,-1.91992 -2.304,-0.38401 -4.60811,-0.63958 -6.9121,-0.76758 -2.30401,-0.128 -3.96819,-0.25677 -4.99219,-0.38477 h -0.57617 c -1.152,-0.256 -1.91874,-0.44817 -2.30274,-0.57617 -0.384,-0.256 -0.57617,-0.83252 -0.57617,-1.72852 v -1.15039 l 0.19141,-4.22461 v -0.96093 c 0,-2.816 -1.08768,-4.22266 -3.26368,-4.22266 -0.896,0 -1.92026,0.12681 -3.07226,0.38281 -1.152,0.256 -2.23967,0.64035 -3.26367,1.15235 -1.024,0.512 -1.8561,1.08851 -2.4961,1.72851 -0.64,0.64 -0.96093,1.34333 -0.96093,2.11133 l 0.57617,11.32813 c 0.256,1.79199 0.38476,3.45618 0.38476,4.99218 v 4.41602 4.99219 c 0,1.28 -0.0634,2.36767 -0.1914,3.26367 v 2.30468 1.34376 c -0.128,2.30399 -0.32018,4.92709 -0.57618,7.87109 -0.256,2.944 -0.89592,6.65672 -1.91992,11.13672 -0.256,1.024 -0.38476,1.79269 -0.38476,2.30469 0,1.024 0.19217,1.66392 0.57617,1.91992 0.512,0.256 1.02315,0.38281 1.53516,0.38281 h 0.19335 c 1.28,0 2.36768,-0.83209 3.26368,-2.49609 1.024,-1.792 1.85609,-4.09611 2.49609,-6.91211 0.768,-2.944 1.40792,-6.27043 1.91992,-9.98243 0.64,-3.84 1.21652,-7.80829 1.72852,-11.90429 l 0.76758,-6.14453 c 0.128,-0.512 0.38357,-0.95975 0.76757,-1.34375 0.384,-0.384 1.34486,-0.57618 2.88086,-0.57618 0.896,0 1.85491,0.12877 2.87891,0.38477 1.024,0.256 1.53711,0.89592 1.53711,1.91992 -0.128,3.328 -0.38553,6.71978 -0.76953,10.17578 -0.384,3.328 -0.57617,6.65638 -0.57617,9.98438 0,2.944 0.19217,6.65476 0.57617,11.13476 0.384,4.352 1.21609,8.57588 2.49609,12.67188 1.28,3.968 3.13636,7.35978 5.56836,10.17578 2.432,2.944 5.69697,4.41602 9.79297,4.41602 3.84,0 6.9762,-1.47202 9.4082,-4.41602 2.56,-2.944 4.54317,-6.27042 5.95117,-9.98242 0.12453,-0.31131 0.22596,-0.61002 0.34375,-0.91797 0.50076,1.78485 1.08463,3.50153 1.76758,5.14062 1.28,3.072 2.94419,5.56829 4.99219,7.48829 2.176,2.048 4.80105,3.07226 7.87305,3.07226 1.024,0 1.79073,0.0634 2.30273,0.19141 0.64,0.128 1.15311,0.25676 1.53711,0.38476 0.512,0.256 0.95975,0.44817 1.34375,0.57617 0.384,0.12801 0.95856,0.19141 1.72656,0.19141 2.688,0 4.99211,-0.83209 6.91211,-2.49609 2.048,-1.536 3.84096,-3.45577 5.37696,-5.75977 1.536,-2.304 2.81584,-4.80028 3.83984,-7.48828 1.024,-2.688 1.9195,-5.05551 2.6875,-7.10351 0.64,5.37599 2.36759,9.53646 5.18359,12.48046 2.944,2.944 6.33774,4.41602 10.17774,4.41602 2.56,0 4.86411,-0.76869 6.91211,-2.30469 2.176,-1.536 4.0304,-3.39236 5.5664,-5.56836 1.10072,-1.52406 2.04847,-3.07813 2.86914,-4.6582 0.056,1.6824 0.12039,3.22566 0.20313,4.4668 0.384,3.84 0.89711,6.59186 1.53711,8.25586 0.256,0.64 0.89592,1.15115 1.91992,1.53515 1.024,0.512 2.11167,0.89635 3.26367,1.15235 1.28,0.256 2.49644,0.44817 3.64844,0.57617 1.28,0.256 2.1755,0.38476 2.6875,0.38476 1.792,0 3.39083,-0.12876 4.79883,-0.38476 1.536,-0.256 2.30468,-1.0881 2.30468,-2.4961 0,-3.84 0.32094,-8.19068 0.96094,-13.05468 0.64,-4.864 1.34333,-9.47222 2.11133,-13.82422 0.896,-4.48 1.7915,-8.25613 2.6875,-11.32813 1.024,-3.072 1.85609,-4.73618 2.49609,-4.99219 0.384,0.25601 0.57618,0.89593 0.57618,1.91993 0.128,1.024 0.1914,2.04826 0.1914,3.07226 v 14.40039 c 0,3.968 0.0654,7.35978 0.19336,10.17578 0.256,2.816 0.76716,5.12011 1.53516,6.91211 0.896,1.664 2.17584,2.87849 3.83984,3.64649 1.664,0.768 3.9047,1.15234 6.7207,1.15234 1.79201,0 3.26402,-0.25558 4.41602,-0.76758 1.152,-0.512 1.72852,-1.08851 1.72852,-1.72851 0,-1.536 0.25557,-3.51917 0.76757,-5.95117 0.512,-2.432 1.08657,-4.86488 1.72657,-7.29688 0.768,-2.56 1.40792,-4.86411 1.91992,-6.91211 0.64,-2.048 1.02434,-3.39125 1.15234,-4.03125 0.768,-2.176 1.92103,-5.18344 3.45703,-9.02344 1.536,-3.84 3.20019,-7.48931 4.99219,-10.94531 l -1.15234,15.74414 v 1.34375 c 0,4.48 0.25558,8.76924 0.76758,12.86524 0.64,4.096 1.66426,7.74336 3.07226,10.94336 1.408,3.072 3.39117,5.50487 5.95117,7.29687 2.56,1.92 5.82497,2.87891 9.79297,2.87891 3.328,0 6.27203,-1.27985 8.83203,-3.83985 2.56,-2.688 4.67194,-5.75884 6.33594,-9.21484 1.792,-3.584 3.13525,-7.10455 4.03125,-10.56055 1.024,-3.584 1.60052,-6.20904 1.72852,-7.87304 0.128,-0.384 0.1914,-1.08733 0.1914,-2.11133 0,-1.792 -0.19217,-2.94308 -0.57617,-3.45508 -0.256,-0.512 -0.89592,-0.76953 -1.91992,-0.76953 -1.664,0 -2.81508,1.53737 -3.45508,4.60937 -0.512,2.944 -1.15192,5.82268 -1.91992,8.63868 -0.768,2.688 -1.6635,5.05746 -2.6875,7.10546 -1.024,2.048 -2.24044,3.71024 -3.64844,4.99024 -1.408,1.152 -3.00878,1.72851 -4.80078,1.72851 -1.28,0 -2.30427,-0.57651 -3.07227,-1.72851 -0.768,-1.152 -1.40792,-2.62402 -1.91992,-4.41602 -0.384,-1.92 -0.70298,-4.03193 -0.95898,-6.33593 -0.128,-2.304 -0.19336,-4.60811 -0.19336,-6.91211 0,-5.376 0.12876,-9.79205 0.38476,-13.24805 0.384,-3.456 1.02393,-6.97459 1.91993,-10.55859 0.256,-1.28 0.76911,-2.49644 1.53711,-3.64844 0.768,-1.28 1.15039,-2.04869 1.15039,-2.30469 0,-1.408 -0.57457,-2.75125 -1.72657,-4.03125 -1.024,-1.28 -2.30384,-2.43303 -3.83984,-3.45703 -1.408,-1.024 -2.88002,-1.79073 -4.41602,-2.30274 -1.536,-0.63999 -2.75243,-0.96093 -3.64843,-0.96093 -1.152,0 -2.49721,0.0654 -4.03321,0.19336 -1.408,0 -2.24009,0.25557 -2.49609,0.76757 -1.536,2.944 -3.26359,6.9123 -5.18359,11.9043 -1.92,4.992 -3.711,9.8558 -5.375,14.5918 -1.664,4.736 -3.13602,8.83111 -4.41602,12.28711 -1.152,3.456 -1.85728,5.18359 -2.11328,5.18359 -0.256,0 -0.38281,-0.38239 -0.38281,-1.15039 v -1.72851 -31.10352 c -0.128,-0.768 -0.57575,-1.40792 -1.34375,-1.91992 -0.64,-0.64 -1.40869,-1.15311 -2.30469,-1.53711 -0.896,-0.384 -1.85686,-0.63958 -2.88086,-0.76758 -0.896,-0.256 -1.66273,-0.38477 -2.30273,-0.38477 -0.896,0 -2.04904,0.12877 -3.45704,0.38477 -1.408,0.128 -2.3669,0.38358 -2.8789,0.76758 -1.408,1.28 -2.75321,3.32853 -4.0332,6.14453 -1.28001,2.816 -2.49449,5.88684 -3.64649,9.21484 -1.024,3.328 -1.98486,6.72174 -2.88086,10.17774 -0.768,3.328 -1.47133,6.27203 -2.11133,8.83203 v -46.27344 c -0.384,-0.256 -1.08928,-0.51158 -2.11328,-0.76758 -1.024,-0.384 -2.17508,-0.70298 -3.45508,-0.95898 -1.152,-0.256 -2.36843,-0.44817 -3.64843,-0.57617 -1.152,-0.256 -2.17627,-0.38477 -3.07227,-0.38477 -0.384,0 -1.02392,0.12877 -1.91992,0.38477 -0.768,0.128 -1.15234,0.70256 -1.15234,1.72656 0,0.256 0.0653,1.34563 0.19335,3.26562 0.128,1.792 0.19141,3.26402 0.19141,4.41602 -0.256,8.448 -0.51158,15.80808 -0.76758,22.08008 -0.10225,5.01026 -0.1513,9.39178 -0.17187,13.42187 -0.59383,0.30394 -0.98543,1.01022 -1.17188,2.12891 -0.128,1.024 -0.51234,2.55942 -1.15234,4.60742 -0.512,2.048 -1.21533,4.09653 -2.11133,6.14453 -0.768,1.92 -1.79227,3.6476 -3.07226,5.1836 -1.152,1.536 -2.49721,2.30468 -4.03321,2.30468 -1.408,0 -2.55908,-0.57651 -3.45508,-1.72851 -0.896,-1.28 -1.59932,-2.81542 -2.11132,-4.60742 -0.384,-1.92 -0.70494,-3.90317 -0.96094,-5.95118 -0.128,-2.17599 -0.19141,-4.16112 -0.19141,-5.95312 0,-3.584 0.12681,-6.65484 0.38281,-9.21484 0.256,-2.56 1.02469,-5.50404 2.30469,-8.83204 v -0.76953 c 0,-0.896 -0.32094,-1.59932 -0.96094,-2.11132 -0.512,-0.64 -1.15192,-1.08775 -1.91992,-1.34375 -0.768,-0.384 -1.47133,-0.70494 -2.11133,-0.96094 -0.512,-0.256 -0.76757,-0.44817 -0.76757,-0.57617 -0.384,-2.56 -0.51277,-5.11969 -0.38477,-7.67969 0.128,-2.688 10e-4,-5.24769 -0.38281,-7.67969 -0.256,-2.432 -0.96128,-4.6727 -2.11328,-6.7207 -1.024,-2.176 -2.88036,-4.03041 -5.56836,-5.56641 -2.432,-0.384 -4.35177,-0.89711 -5.75977,-1.53711 -1.28,-0.64 -2.49448,-1.21456 -3.64648,-1.72656 -1.152,-0.64 -2.43185,-1.15311 -3.83985,-1.53711 -1.28,-0.512 -3.20172,-0.76758 -5.76172,-0.76758 z m -272.0625,12.86328 c 1.92,0 3.52079,0.76869 4.80079,2.30469 1.28,1.408 2.30426,3.199 3.07226,5.375 0.896,2.176 1.53592,4.60888 1.91992,7.29688 0.512,2.56 0.83099,5.05628 0.95899,7.48828 0.256,2.432 0.38476,4.54393 0.38476,6.33593 0.128,1.79201 0.19141,2.94308 0.19141,3.45508 v 3.64844 c 0,0.64 -1.21644,1.5355 -3.64844,2.6875 -2.304,1.152 -5.31143,1.72852 -9.02343,1.72852 -4.992,0 -8.51255,-1.15108 -10.56055,-3.45508 -2.048,-2.432 -3.07227,-6.20813 -3.07227,-11.32813 0,-2.944 0.38435,-5.95339 1.15235,-9.02539 0.896,-3.072 2.04903,-5.82386 3.45703,-8.25586 1.408,-2.432 3.00683,-4.41517 4.79883,-5.95117 1.792,-1.536 3.64836,-2.30469 5.56835,-2.30469 z m 100.22461,0 c 1.92,0 3.51883,0.76869 4.79883,2.30469 1.28,1.408 2.30427,3.199 3.07227,5.375 0.896,2.176 1.53592,4.60888 1.91992,7.29688 0.512,2.56 0.83294,5.05628 0.96094,7.48828 0.256,2.432 0.38281,4.54393 0.38281,6.33593 0.128,1.79201 0.19336,2.94308 0.19336,3.45508 v 3.64844 c 0,0.64 -1.21644,1.5355 -3.64844,2.6875 -2.304,1.152 -5.31339,1.72852 -9.02539,1.72852 -4.992,0 -8.51059,-1.15108 -10.55859,-3.45508 -2.048,-2.432 -3.07227,-6.20813 -3.07227,-11.32813 0,-2.944 0.38435,-5.95339 1.15235,-9.02539 0.896,-3.072 2.04707,-5.82386 3.45507,-8.25586 1.408,-2.432 3.00879,-4.41517 4.80079,-5.95117 1.79199,-1.536 3.64835,-2.30469 5.56835,-2.30469 z m 62.39844,0.76758 c 1.792,0 3.26402,0.57652 4.41602,1.72852 1.28,1.024 2.24086,2.3692 2.88086,4.0332 0.64,1.536 1.08775,3.19824 1.34375,4.99024 0.256,1.792 0.38476,3.39278 0.38476,4.80078 0,1.152 -0.12876,2.43184 -0.38476,3.83984 -0.128,1.408 -0.57575,2.62444 -1.34375,3.64844 -0.256,0.384 -0.51158,1.2795 -0.76758,2.6875 -0.256,1.28 -0.44817,3.77628 -0.57617,7.48828 -0.128,2.688 -0.57575,5.88761 -1.34375,9.59961 -0.64,3.584 -1.66427,7.10454 -3.07227,10.56055 -1.28,3.328 -2.94419,6.14326 -4.99219,8.44726 -2.048,2.304 -4.41551,3.45703 -7.10351,3.45703 -1.536,0 -2.81585,-0.76869 -3.83985,-2.30469 -0.896,-1.536 -1.60128,-3.45576 -2.11328,-5.75976 -0.384,-2.304 -0.70298,-4.86369 -0.95898,-7.67969 -0.128,-2.944 -0.19336,-5.75926 -0.19336,-8.44726 0,-6.4 0.4497,-12.09785 1.3457,-17.08985 1.024,-5.12 2.30385,-9.40728 3.83985,-12.86328 1.664,-3.584 3.5184,-6.33586 5.5664,-8.25586 2.176,-1.92 4.48011,-2.88086 6.91211,-2.88086 z m 116.16016,1.53711 c 2.176,0 3.90359,0.57652 5.18359,1.72852 1.28,1.152 2.24086,2.55865 2.88086,4.22265 0.64,1.664 1.08775,3.45696 1.34375,5.37696 0.256,1.92 0.38477,3.58418 0.38477,4.99218 v 1.72657 c 0,0.256 -0.44971,0.7057 -1.34571,1.3457 -0.896,0.512 -1.47056,1.85525 -1.72656,4.03125 -0.384,4.096 -0.83175,8.64081 -1.34375,13.63281 -0.384,4.864 -1.08928,9.47027 -2.11328,13.82227 -1.024,4.224 -2.55942,7.80795 -4.60742,10.75195 -1.92,2.816 -4.73527,4.22461 -8.44727,4.22461 -1.536,0 -2.81779,-0.8955 -3.84179,-2.6875 -0.896,-1.792 -1.59933,-3.96734 -2.11133,-6.52734 -0.512,-2.56 -0.89635,-5.24846 -1.15235,-8.06446 -0.128,-2.944 -0.1914,-5.44028 -0.1914,-7.48828 0,-2.688 0.19217,-6.33536 0.57617,-10.94336 0.384,-4.736 1.21609,-9.28081 2.49609,-13.63281 1.28,-4.48 3.0076,-8.31953 5.1836,-11.51953 2.304,-3.328 5.24803,-4.99219 8.83203,-4.99219 z M 221,207.13477 c 2.176,1.536 4.15917,2.56026 5.95117,3.07226 1.92,0.512 4.60846,0.76758 8.06445,0.76758 1.79201,0 4.03271,-0.25558 6.72071,-0.76758 2.688,-0.512 4.79994,-1.28069 6.33594,-2.30469 0,1.536 -0.32094,3.2636 -0.96094,5.1836 -0.512,1.92 -1.4075,3.71295 -2.6875,5.37695 -1.152,1.664 -2.75278,3.07261 -4.80078,4.22461 -1.92,1.024 -4.28752,1.53516 -7.10352,1.53516 -2.304,0 -4.22376,-0.38435 -5.75976,-1.15235 -1.536,-0.896 -2.75244,-1.98367 -3.64844,-3.26367 -0.768,-1.28 -1.34452,-2.68861 -1.72852,-4.22461 -0.384,-1.536 -0.57617,-3.00801 -0.57617,-4.41601 z m 100.22266,0 c 2.176,1.536 4.16112,2.56026 5.95312,3.07226 1.92,0.512 4.6065,0.76758 8.0625,0.76758 1.792,0 4.0327,-0.25558 6.7207,-0.76758 2.688,-0.512 4.79994,-1.28069 6.33594,-2.30469 0,1.536 -0.32094,3.2636 -0.96094,5.1836 -0.512,1.92 -1.4075,3.71295 -2.6875,5.37695 -1.152,1.664 -2.75082,3.07261 -4.79882,4.22461 -1.92,1.024 -4.28947,1.53516 -7.10547,1.53516 -2.304,0 -4.22377,-0.38435 -5.75977,-1.15235 -1.536,-0.896 -2.75244,-1.98367 -3.64844,-3.26367 -0.768,-1.28 -1.34256,-2.68861 -1.72656,-4.22461 -0.384,-1.536 -0.57617,-3.00801 -0.57617,-4.41601 z m 87.35937,35.90429 v 15.55078 c 0,3.968 -0.0634,7.0408 -0.19141,9.2168 v 4.41602 1.72851 c 0,1.92 -0.19217,4.47969 -0.57617,7.67969 -0.256,3.2 -0.89592,6.3362 -1.91992,9.4082 -0.896,3.072 -2.23925,5.6951 -4.03125,7.8711 -1.664,2.304 -3.8413,3.45703 -6.5293,3.45703 -1.536,0 -2.87925,-0.44775 -4.03125,-1.34375 -1.024,-0.896 -1.85609,-2.04903 -2.49609,-3.45703 -0.512,-1.28 -0.89634,-2.68666 -1.15234,-4.22266 -0.256,-1.536 -0.38282,-2.94461 -0.38282,-4.22461 0,-3.584 0.51116,-7.6157 1.53516,-12.0957 1.152,-4.48 2.68742,-8.89605 4.60742,-13.24805 1.92,-4.352 4.16071,-8.3837 6.72071,-12.0957 2.688,-3.712 5.50326,-6.59263 8.44726,-8.64063 z"
       transform="translate(0,17.6)"
       id="path374"
       inkscape:connector-curvature="0" />
  </g>
</svg>
